# 3ds Max Wavefront OBJ Exporter v0.97b - (c)2007 guruware
# File Created: 30.04.2018 12:55:37

mtllib Floor.mtl

#
# object Base
#

v  5.6892 -9.6000 0.0000
v  5.6892 -8.5099 0.0000
v  -5.4624 -8.5099 0.0000
v  -5.4624 -9.6000 0.0000
v  5.6892 -6.2549 0.0000
v  -5.4624 -6.2549 0.0000
v  5.6892 -5.6021 0.0000
v  -5.4624 -5.6021 0.0000
v  5.6892 -2.5171 0.0000
v  -5.4624 -2.5171 0.0000
v  5.6892 -1.8536 0.0000
v  -5.4624 -1.8536 0.0000
v  5.6892 2.0646 0.0000
v  -5.4624 2.0646 0.0000
v  5.6892 2.7042 0.0000
v  -5.4624 2.7042 0.0000
v  5.6892 8.4196 0.0000
v  -5.4624 8.4196 0.0000
v  5.6892 9.6000 0.0000
v  -5.4624 9.6000 0.0000
# 20 vertices

vn 0.0000 0.0000 1.0000
# 1 vertex normals

vt 0.6667 0.0000 0.0000
vt 0.6667 0.1000 0.0000
vt 0.3333 0.1000 0.0000
vt 0.3333 0.0000 0.0000
vt 0.6667 0.2000 0.0000
vt 0.3333 0.2000 0.0000
vt 0.6667 0.3000 0.0000
vt 0.3333 0.3000 0.0000
vt 0.6667 0.4000 0.0000
vt 0.3333 0.4000 0.0000
vt 0.6667 0.5000 0.0000
vt 0.3333 0.5000 0.0000
vt 0.6667 0.6000 0.0000
vt 0.3333 0.6000 0.0000
vt 0.6667 0.7000 0.0000
vt 0.3333 0.7000 0.0000
vt 0.6667 0.9000 0.0000
vt 0.3333 0.9000 0.0000
vt 0.6667 1.0000 0.0000
vt 0.3333 1.0000 0.0000
# 20 texture coords

o Base
g Base
usemtl 02___Default
f 1/1/1 2/2/1 3/3/1 
f 3/3/1 4/4/1 1/1/1 
usemtl 01___Default
f 2/2/1 5/5/1 6/6/1 
f 6/6/1 3/3/1 2/2/1 
usemtl 09___Default
f 5/5/1 7/7/1 8/8/1 
f 8/8/1 6/6/1 5/5/1 
usemtl 01___Default
f 7/7/1 9/9/1 10/10/1 
f 10/10/1 8/8/1 7/7/1 
usemtl 09___Default
f 9/9/1 11/11/1 12/12/1 
f 12/12/1 10/10/1 9/9/1 
usemtl 01___Default
f 11/11/1 13/13/1 14/14/1 
f 14/14/1 12/12/1 11/11/1 
usemtl 09___Default
f 13/13/1 15/15/1 16/16/1 
f 16/16/1 14/14/1 13/13/1 
usemtl 01___Default
f 15/15/1 17/17/1 18/18/1 
f 18/18/1 16/16/1 15/15/1 
usemtl 03___Default
f 17/17/1 19/19/1 20/20/1 
f 20/20/1 18/18/1 17/17/1 
# 18 faces

