# 3ds Max Wavefront OBJ Exporter v0.97b - (c)2007 guruware
# File Created: 26.04.2018 15:06:34

mtllib LeftWall.mtl

#
# object Left_Wall
#

v  -5.4624 1.8085 8.5099
v  -5.4624 1.8085 6.2549
v  -5.4624 1.8085 5.6025
v  -5.4624 1.8085 2.5175
v  -5.4624 1.8085 1.8536
v  -5.4624 1.8085 -0.0121
v  -5.4624 1.8085 -2.0646
v  -5.4624 1.8085 -2.7042
v  -5.4624 1.8085 -4.5548
v  -5.4624 1.8085 -6.5515
v  -5.4624 1.8085 -8.4196
v  -5.4624 1.8085 -9.6000
v  -5.6953 1.8085 -9.6000
v  -5.6953 1.8085 9.6000
v  -5.4624 1.8085 9.6000
v  -5.6953 0.0000 9.6000
v  -5.4624 0.0000 9.6000
v  -5.4624 0.0000 8.5099
v  -5.4624 0.0000 6.2549
v  -5.4624 0.0000 5.6021
v  -5.4624 0.0000 2.5171
v  -5.4624 0.0000 1.8536
v  -5.4624 0.0000 -0.0121
v  -5.4624 0.0000 -2.0646
v  -5.4624 0.0000 -2.7042
v  -5.4624 0.0000 -4.5548
v  -5.4624 0.0000 -8.4196
v  -5.4624 0.0000 -9.6000
v  -5.6953 0.0000 -9.6000
v  -5.4624 0.0000 -6.5515
# 30 vertices

vn 0.7071 0.7071 -0.0000
vn 0.5774 0.5774 -0.5774
vn -0.5774 0.5774 -0.5774
vn -0.5774 0.5774 0.5774
vn 0.5774 0.5774 0.5773
vn -0.7071 0.0000 0.7071
vn 0.7071 0.0000 0.7071
vn 1.0000 0.0000 -0.0000
vn 0.7071 0.0000 -0.7071
vn -0.7071 0.0000 -0.7071
# 10 vertex normals

vt 0.3333 0.1000 0.0000
vt 0.3333 0.2000 0.0000
vt 0.3333 0.3000 0.0000
vt 0.3333 0.4000 0.0000
vt 0.3333 0.5000 0.0000
vt 0.3333 0.5500 0.0000
vt 0.3333 0.6000 0.0000
vt 0.3333 0.7000 0.0000
vt 0.3333 0.7500 0.0000
vt 0.3333 0.8000 0.0000
vt 0.3333 0.9000 0.0000
vt 0.3333 1.0000 0.0000
vt 0.0000 1.0000 0.0000
vt 0.0000 0.0000 0.0000
vt 0.3333 0.0000 0.0000
# 15 texture coords

o Left_Wall
g Left_Wall
usemtl 01___Default
s 1
f 1/1/1 2/2/1 3/3/1 4/4/1 5/5/1 6/6/1 7/7/1 8/8/1 9/9/1 10/10/1 11/11/1 12/12/2 13/13/3 14/14/4 15/15/5 
s off
f 16/14/6 17/15/7 15/15/5 14/14/4 
f 17/15/7 18/1/8 1/1/1 15/15/5 
usemtl 07___Default
f 18/1/8 19/2/8 2/2/1 1/1/1 
usemtl 01___Default
f 19/2/8 20/3/8 3/3/1 2/2/1 
usemtl 08___Default
f 20/3/8 21/4/8 4/4/1 3/3/1 
usemtl 01___Default
f 21/4/8 22/5/8 5/5/1 4/4/1 
usemtl 07___Default
f 22/5/8 23/6/8 6/6/1 5/5/1 
usemtl 01___Default
f 24/7/8 25/8/8 8/8/1 7/7/1 
usemtl 07___Default
f 25/8/8 26/9/8 9/9/1 8/8/1 
usemtl 01___Default
f 27/11/8 28/12/9 12/12/2 11/11/1 
f 28/12/9 29/13/10 13/13/3 12/12/2 
f 29/13/10 16/14/6 14/14/4 13/13/3 
usemtl 07___Default
f 30/10/8 27/11/8 11/11/1 10/10/1 
usemtl 08___Default
f 23/6/8 24/7/8 7/7/1 6/6/1 
f 26/9/8 30/10/8 10/10/1 9/9/1 
# 16 polygons

