# 3ds Max Wavefront OBJ Exporter v0.97b - (c)2007 guruware
# File Created: 14.05.2018 15:28:45

mtllib rightWall.mtl

#
# object Rigth_Wall
#

v  5.8566 9.6000 1.8085
v  5.6892 9.6000 1.8085
v  5.6892 8.4196 1.8085
v  5.6892 6.5570 1.8085
v  5.6892 4.5623 1.8085
v  5.6892 2.7042 1.8085
v  5.6892 2.0646 1.8085
v  5.6892 0.0121 1.8085
v  5.6892 -1.8536 1.8085
v  5.6892 -2.5175 1.8085
v  5.6892 -5.6025 1.8085
v  5.6892 -6.2549 1.8085
v  5.6892 -8.5099 1.8085
v  5.8566 -9.6000 1.8085
v  5.6892 -9.6000 1.8085
v  5.8566 -9.6000 0.0000
v  5.8566 9.6000 0.0000
v  5.6892 9.6000 0.0000
v  5.6892 8.4196 0.0000
v  5.6892 6.5570 0.0000
v  5.6892 2.7042 0.0000
v  5.6892 2.0646 0.0000
v  5.6892 0.0121 0.0000
v  5.6892 -1.8536 0.0000
v  5.6892 -2.5171 0.0000
v  5.6892 -5.6021 0.0000
v  5.6892 -6.2549 0.0000
v  5.6892 -8.5099 0.0000
v  5.6892 -9.6000 0.0000
v  5.6892 4.5623 0.0000
# 30 vertices

vn 0.0000 0.0000 1.0000
vn 1.0000 0.0000 0.0000
vn 0.0000 1.0000 0.0000
vn -1.0000 0.0000 0.0000
vn -1.0000 -0.0000 0.0000
vn 0.0000 -1.0000 0.0000
# 6 vertex normals

vt 1.0000 1.0000 0.0000
vt 0.6667 1.0000 0.0000
vt 0.6667 0.9000 0.0000
vt 0.6667 0.8500 0.0000
vt 0.6667 0.8000 0.0000
vt 0.6667 0.7000 0.0000
vt 0.6667 0.6000 0.0000
vt 0.6667 0.5500 0.0000
vt 0.6667 0.5000 0.0000
vt 0.6667 0.4000 0.0000
vt 0.6667 0.3000 0.0000
vt 0.6667 0.2000 0.0000
vt 0.6667 0.1000 0.0000
vt 1.0000 0.0000 0.0000
vt 0.6667 0.0000 0.0000
# 15 texture coords

o Rigth_Wall
g Rigth_Wall
usemtl 01___Default
f 1/1/1 2/2/1 3/3/1 
f 1/1/1 3/3/1 4/4/1 
f 1/1/1 4/4/1 5/5/1 
f 1/1/1 5/5/1 6/6/1 
f 1/1/1 6/6/1 7/7/1 
f 1/1/1 7/7/1 8/8/1 
f 1/1/1 8/8/1 9/9/1 
f 1/1/1 9/9/1 10/10/1 
f 1/1/1 10/10/1 11/11/1 
f 1/1/1 11/11/1 12/12/1 
f 1/1/1 12/12/1 13/13/1 
f 14/14/1 1/1/1 13/13/1 
f 15/15/1 14/14/1 13/13/1 
f 16/14/2 17/1/2 1/1/2 
f 1/1/2 14/14/2 16/14/2 
f 17/1/3 18/2/3 2/2/3 
f 2/2/3 1/1/3 17/1/3 
f 18/2/4 19/3/4 3/3/4 
f 3/3/4 2/2/4 18/2/4 
usemtl 08___Default
f 20/4/4 4/4/4 3/3/4 
f 3/3/4 19/3/4 20/4/4 
usemtl 01___Default
f 21/6/4 22/7/4 7/7/4 
f 7/7/4 6/6/4 21/6/4 
usemtl 07___Default
f 23/8/4 8/8/4 7/7/4 
f 7/7/4 22/7/4 23/8/4 
usemtl 01___Default
f 24/9/4 25/10/4 10/10/4 
f 10/10/4 9/9/4 24/9/4 
usemtl 07___Default
f 25/10/4 26/11/4 11/11/4 
f 11/11/4 10/10/4 25/10/4 
usemtl 01___Default
f 26/11/4 27/12/4 12/12/4 
f 12/12/4 11/11/4 26/11/4 
usemtl 08___Default
f 27/12/4 28/13/4 13/13/4 
f 13/13/4 12/12/4 27/12/4 
usemtl 01___Default
f 28/13/5 29/15/5 15/15/5 
f 15/15/5 13/13/5 28/13/5 
f 29/15/6 16/14/6 14/14/6 
f 14/14/6 15/15/6 29/15/6 
usemtl 08___Default
f 21/6/4 6/6/4 5/5/4 
f 5/5/4 30/5/4 21/6/4 
f 24/9/4 9/9/4 8/8/4 
f 8/8/4 23/8/4 24/9/4 
usemtl 07___Default
f 30/5/4 5/5/4 4/4/4 
f 4/4/4 20/4/4 30/5/4 
# 43 faces

